# xmcd CD database file
#
# Track frame offsets:
#	150
#	20205
#	36577
#	54912
#	76262
#	98552
#	119242
#	138395
#	156385
#	176820
#
# Disc length: 2675 seconds
#
# Revision: 0
# Processed by: cddbd v1.5PL3 Copyright (c) Steve Scherf et al.
# Submitted via: CDex 1.51
#
DISCID=8c0a710a
DTITLE=杉山清貴&オメガトライブ - Kamasami Kong DJ SPECIAL
DYEAR=1900
DGENRE=Japanese Pop
TTITLE0=SUMMER SUSPICION
TTITLE1=LIGHT MORNING
TTITLE2=TRANSIT IN SUMMER
TTITLE3=MIDNIGHT DOWN TOWN
TTITLE4=KIMI NO HEART WA MARINE BLUE
TTITLE5=SATURDAY'S GENERATION
TTITLE6=RIVER'S ISLAND
TTITLE7=BECAUSE
TTITLE8=SAIGO NO NIGHT FLIGHT
TTITLE9=ALONE AGAIN
EXTD=
EXTT0=
EXTT1=
EXTT2=
EXTT3=
EXTT4=
EXTT5=
EXTT6=
EXTT7=
EXTT8=
EXTT9=
PLAYORDER=
